<svg width="186" height="15" viewBox="0 0 186 15" fill="none" xmlns="http://www.w3.org/2000/svg">
<path d="M6.8 14.4C5.77333 14.4 4.84667 14.2 4.02 13.8C3.19333 13.4 2.48 12.86 1.88 12.18C1.28 11.4867 0.813333 10.7133 0.48 9.86C0.16 8.99333 0 8.10667 0 7.2C0 6.25333 0.173333 5.35333 0.52 4.5C0.866667 3.63333 1.34667 2.86667 1.96 2.2C2.57333 1.52 3.29333 0.986667 4.12 0.599999C4.96 0.2 5.86667 0 6.84 0C7.85333 0 8.77333 0.206667 9.6 0.62C10.44 1.03333 11.1533 1.58667 11.74 2.28C12.34 2.97333 12.8 3.74667 13.12 4.6C13.4533 5.45333 13.62 6.32667 13.62 7.22C13.62 8.16667 13.4467 9.07333 13.1 9.94C12.7667 10.7933 12.2933 11.56 11.68 12.24C11.0667 12.9067 10.34 13.4333 9.5 13.82C8.67333 14.2067 7.77333 14.4 6.8 14.4ZM2.28 7.2C2.28 7.86667 2.38667 8.51333 2.6 9.14C2.81333 9.76667 3.11333 10.3267 3.5 10.82C3.9 11.3 4.38 11.68 4.94 11.96C5.5 12.24 6.12667 12.38 6.82 12.38C7.54 12.38 8.18 12.2333 8.74 11.94C9.3 11.6467 9.76667 11.2533 10.14 10.76C10.5267 10.2533 10.82 9.69333 11.02 9.08C11.22 8.45333 11.32 7.82667 11.32 7.2C11.32 6.53333 11.2133 5.89333 11 5.28C10.8 4.65333 10.5 4.1 10.1 3.62C9.7 3.12667 9.22 2.74 8.66 2.46C8.11333 2.18 7.5 2.04 6.82 2.04C6.1 2.04 5.46 2.18667 4.9 2.48C4.34 2.77333 3.86667 3.16667 3.48 3.66C3.09333 4.15333 2.79333 4.70667 2.58 5.32C2.38 5.93333 2.28 6.56 2.28 7.2Z" fill="#DCC8C1"/>
<path d="M52.2191 14.4C51.1924 14.4 50.2657 14.2 49.4391 13.8C48.6124 13.4 47.8991 12.86 47.2991 12.18C46.6991 11.4867 46.2324 10.7133 45.8991 9.86C45.5791 8.99333 45.4191 8.10667 45.4191 7.2C45.4191 6.25333 45.5924 5.35333 45.9391 4.5C46.2857 3.63333 46.7657 2.86667 47.3791 2.2C47.9924 1.52 48.7124 0.986667 49.5391 0.599999C50.3791 0.2 51.2857 0 52.2591 0C53.2724 0 54.1924 0.206667 55.0191 0.62C55.8591 1.03333 56.5724 1.58667 57.1591 2.28C57.7591 2.97333 58.2191 3.74667 58.5391 4.6C58.8724 5.45333 59.0391 6.32667 59.0391 7.22C59.0391 8.16667 58.8657 9.07333 58.5191 9.94C58.1857 10.7933 57.7124 11.56 57.0991 12.24C56.4857 12.9067 55.7591 13.4333 54.9191 13.82C54.0924 14.2067 53.1924 14.4 52.2191 14.4ZM47.6991 7.2C47.6991 7.86667 47.8057 8.51333 48.0191 9.14C48.2324 9.76667 48.5324 10.3267 48.9191 10.82C49.3191 11.3 49.7991 11.68 50.3591 11.96C50.9191 12.24 51.5457 12.38 52.2391 12.38C52.9591 12.38 53.5991 12.2333 54.1591 11.94C54.7191 11.6467 55.1857 11.2533 55.5591 10.76C55.9457 10.2533 56.2391 9.69333 56.4391 9.08C56.6391 8.45333 56.7391 7.82667 56.7391 7.2C56.7391 6.53333 56.6324 5.89333 56.4191 5.28C56.2191 4.65333 55.9191 4.1 55.5191 3.62C55.1191 3.12667 54.6391 2.74 54.0791 2.46C53.5324 2.18 52.9191 2.04 52.2391 2.04C51.5191 2.04 50.8791 2.18667 50.3191 2.48C49.7591 2.77333 49.2857 3.16667 48.8991 3.66C48.5124 4.15333 48.2124 4.70667 47.9991 5.32C47.7991 5.93333 47.6991 6.56 47.6991 7.2Z" fill="#DCC8C1"/>
<path d="M103.678 14.3V4.18L99.4981 11.86H98.1781L93.9781 4.18V14.3H91.7381V0.0999999H94.1381L98.8381 8.78L103.538 0.0999999H105.938V14.3H103.678Z" fill="#DCC8C1"/>
<path d="M139.52 14.3V0.0999999H141.76V14.3H139.52Z" fill="#DCC8C1"/>
<path d="M185.09 12.32V14.3H175.35V0.0999999H184.91V2.08H177.59V6.12H183.93V7.98H177.59V12.32H185.09Z" fill="#DCC8C1"/>
</svg>
